PathFileType	4	(X/Y/Z)	/Users/itak/Documents/Research/Walk-IL/dataset/trc/00466_00167.trc
DataRate	CameraRate	NumFrames	NumMarkers	Units	OrigDataRate	OrigDataStartFrame	OrigNumFrames
100.000000	100.000000	4	53	mm	100.000000	357	714
Frame#	Time	RPSI			LPSI			L3			STRN			T10			C7			CLAV			RBAK			LBAK			LSHO			LUPA			LAEL			LAOL			LWTS			LWPS			LFRA			LIFD			LHPS			LHTS			RSHO			RUPA			RAEL			RAOL			RWTS			RWPS			RFRA			RIFD			RHTS			RHPS			RBHD			LFHD			RFHD			LBHD			LHIP			RHIP			RASI			LASI			LKNE			LTHI			LANK			LTIP			LTOE			LMT1			LMT5			LHEE			RKNE			RTHI			RANK			RTIP			RTOE			RMT1			RMT5			RHEE			
		X1	Y1	Z1	X2	Y2	Z2	X3	Y3	Z3	X4	Y4	Z4	X5	Y5	Z5	X6	Y6	Z6	X7	Y7	Z7	X8	Y8	Z8	X9	Y9	Z9	X10	Y10	Z10	X11	Y11	Z11	X12	Y12	Z12	X13	Y13	Z13	X14	Y14	Z14	X15	Y15	Z15	X16	Y16	Z16	X17	Y17	Z17	X18	Y18	Z18	X19	Y19	Z19	X20	Y20	Z20	X21	Y21	Z21	X22	Y22	Z22	X23	Y23	Z23	X24	Y24	Z24	X25	Y25	Z25	X26	Y26	Z26	X27	Y27	Z27	X28	Y28	Z28	X29	Y29	Z29	X30	Y30	Z30	X31	Y31	Z31	X32	Y32	Z32	X33	Y33	Z33	X34	Y34	Z34	X35	Y35	Z35	X36	Y36	Z36	X37	Y37	Z37	X38	Y38	Z38	X39	Y39	Z39	X40	Y40	Z40	X41	Y41	Z41	X42	Y42	Z42	X43	Y43	Z43	X44	Y44	Z44	X45	Y45	Z45	X46	Y46	Z46	X47	Y47	Z47	X48	Y48	Z48	X49	Y49	Z49	X50	Y50	Z50	X51	Y51	Z51	X52	Y52	Z52	X53	Y53	Z53	

358	3.57	502.2780456542969	972.1963500976562	-446.37451171875	555.16845703125	981.5547485351562	-313.2080993652344	478.0759582519531	1066.657592773438	-394.9552917480469	191.5963897705078	1212.420532226562	-268.5551147460938	454.6005554199219	1184.78759765625	-408.0819396972656	339.7380981445312	1437.053833007812	-400.7742614746094	204.0353698730469	1329.481323242188	-288.0746765136719	363.5030822753906	1312.760009765625	-504.2724609375	427.3000793457031	1404.416748046875	-329.4326477050781	375.4197692871094	1420.091186523438	-214.1322174072266	443.3515014648438	1321.199340820312	-119.602653503418	428.712890625	1120.086791992188	-53.93770980834961	497.369140625	1079.089111328125	-123.3317642211914	251.2528228759766	1020.696411132812	-141.4884338378906	267.6240234375	977.66796875	-82.70610046386719	358.9653625488281	1060.84716796875	-59.4263801574707	144.3971710205078	902.534912109375	-142.9558410644531	213.2386016845703	926.4955444335938	-89.35537719726562	183.2210235595703	967.0611572265625	-141.6547698974609	207.0166778564453	1382.821899414062	-499.1450805664062	192.0423583984375	1317.63916015625	-571.5971069335938	168.5460662841797	1028.027709960938	-601.69970703125	229.5776062011719	1003.531127929688	-591.7813110351562	87.40245056152344	864.3455810546875	-456.9212646484375	101.8545684814453	824.88818359375	-534.8703002929688	152.3002166748047	970.1063232421875	-592.9178466796875	50.56428527832031	717.0186157226562	-421.2489624023438	51.71932220458984	776.5551147460938	-431.5483703613281	76.30348968505859	747.8892211914062	-500.9752197265625	185.2052154541016	1613.73193359375	-418.0191650390625	176.76416015625	1627.636840820312	-211.7719268798828	95.19699859619141	1614.459838867188	-313.4056091308594	306.7932739257812	1638.491577148438	-290.6507873535156	491.2873229980469	876.4635620117188	-143.7756652832031	365.0867919921875	831.1934814453125	-519.4942626953125	285.8397521972656	864.6593627929688	-424.5867614746094	370.1187438964844	891.3011474609375	-188.1269226074219	494.0646362304688	465.4224853515625	-73.8380126953125	452.955078125	617.9384155273438	-76.68353271484375	857.0569458007812	259.4645385742188	-191.7439727783203	626.8711547851562	375.8941650390625	-96.70700836181641	677.7200317382812	104.430778503418	-147.9439849853516	709.8740234375	149.8122100830078	-208.8796539306641	768.9110107421875	162.4298248291016	-115.3813247680664	852.6803588867188	279.8543395996094	-266.6856079101562	387.789306640625	446.0364379882812	-421.9566650390625	338.577392578125	695.4459838867188	-489.5029602050781	513.0237426757812	41.90816497802734	-392.4147644042969	409.8515930175781	300.3847961425781	-407.8562622070312	363.9542846679688	51.2419319152832	-230.9811859130859	439.7198181152344	55.04901123046875	-239.7707061767578	384.3004455566406	39.88921356201172	-329.7789306640625	596.5609741210938	38.27780914306641	-390.7765197753906	
359	3.58	505.7593078613281	972.4380493164062	-443.5575866699219	556.7499389648438	981.727783203125	-309.6927185058594	480.7431945800781	1066.740478515625	-392.6787109375	191.6655883789062	1212.385864257812	-271.8258666992188	457.2296447753906	1184.832397460938	-406.420166015625	341.992431640625	1436.960571289062	-401.6540832519531	204.2913818359375	1329.420166015625	-291.4756774902344	367.9951782226562	1312.60009765625	-504.426025390625	428.354248046875	1404.670288085938	-328.6492004394531	374.1279296875	1420.258666992188	-214.4775238037109	440.0889892578125	1321.795776367188	-118.3288497924805	424.0370178222656	1121.324584960938	-51.79711532592773	494.2987365722656	1079.770385742188	-119.3284683227539	248.6053314208984	1021.667724609375	-142.7740020751953	263.3472900390625	979.0181274414062	-83.30699920654297	354.3888854980469	1062.201416015625	-58.49153137207031	141.4700164794922	903.8027954101562	-146.5422058105469	208.89794921875	927.8535766601562	-91.10203552246094	180.4850616455078	968.1036376953125	-144.4508209228516	211.3985748291016	1382.396118164062	-502.5809631347656	198.1589508056641	1317.209838867188	-575.312255859375	176.4548187255859	1027.604125976562	-606.3971557617188	237.3000183105469	1003.26318359375	-594.6702270507812	91.82122039794922	863.013916015625	-464.6225891113281	109.0269927978516	823.7885131835938	-542.1913452148438	160.2767028808594	969.541748046875	-598.2388916015625	54.63883590698242	715.3870239257812	-430.6202392578125	55.92096710205078	774.9557495117188	-440.7616271972656	82.819091796875	746.5987548828125	-509.3571472167969	187.7273864746094	1613.8115234375	-421.8323669433594	174.9768676757812	1627.1962890625	-215.8221435546875	95.55139923095703	1614.098266601562	-319.0870971679688	306.627197265625	1638.503662109375	-291.9721069335938	490.7552490234375	876.7544555664062	-141.1957397460938	368.9365539550781	831.13720703125	-518.3777465820312	288.8943786621094	864.9921875	-424.8114624023438	369.8882446289062	891.6217651367188	-187.1816101074219	491.8885803222656	465.8495788574219	-69.71817779541016	451.6686096191406	618.5584106445312	-73.59921264648438	855.364013671875	256.5487060546875	-181.2577209472656	624.3948364257812	375.3705139160156	-90.30464172363281	673.3505249023438	103.2440185546875	-144.0421600341797	706.9542846679688	149.6490478515625	-203.2846069335938	764.60498046875	158.7834930419922	-108.6547393798828	852.63916015625	278.4200744628906	-255.8349761962891	390.5874938964844	446.46533203125	-422.2898254394531	342.2469177246094	695.95751953125	-489.3451232910156	513.2982177734375	41.47811126708984	-392.325927734375	411.6171569824219	300.7364807128906	-408.1808776855469	363.0333251953125	51.77052688598633	-231.9617004394531	439.0486450195312	55.51231002807617	-240.1811370849609	384.0548095703125	39.73058700561523	-330.2744140625	596.8086547851562	37.4020881652832	-390.1975402832031	
360	3.59	509.0934143066406	972.8262329101562	-440.6807556152344	558.25390625	982.1009521484375	-306.1775207519531	483.2402038574219	1067.025756835938	-390.3713073730469	191.8121185302734	1212.539916992188	-274.9644775390625	459.7069396972656	1185.07177734375	-404.8589477539062	344.092529296875	1437.01513671875	-402.6647033691406	204.5977020263672	1329.537963867188	-294.8045349121094	372.1759338378906	1312.536865234375	-504.6112976074219	429.3163757324219	1405.131225585938	-328.1204223632812	372.9385070800781	1420.676513671875	-215.0472259521484	437.0859680175781	1322.666259765625	-117.4052200317383	419.5651550292969	1122.90087890625	-49.91873550415039	491.2548522949219	1080.714233398438	-115.6539611816406	245.9974212646484	1023.099365234375	-143.9119262695312	259.1487426757812	980.8397216796875	-83.80739593505859	349.9913635253906	1063.954223632812	-57.65448379516602	138.5172424316406	905.6170654296875	-149.7529144287109	204.6100311279297	929.7345581054688	-92.62062072753906	177.7494659423828	969.6912841796875	-146.9497985839844	215.5262451171875	1382.05859375	-505.8742065429688	203.8748474121094	1316.870849609375	-578.7996215820312	183.8216247558594	1027.263427734375	-610.7872924804688	244.7267150878906	1003.359741210938	-597.6433715820312	96.42836761474609	861.3724975585938	-472.3702087402344	116.2414474487305	822.612548828125	-549.5985107421875	167.9153594970703	969.0738525390625	-603.4110717773438	59.30609512329102	713.2880859375	-440.3609008789062	60.56230926513672	772.920166015625	-450.1754760742188	89.63180541992188	745.12158203125	-518.0142211914062	190.1341094970703	1614.0322265625	-425.6322937011719	173.2880706787109	1626.9248046875	-219.9399108886719	95.95809936523438	1613.894897460938	-324.7174682617188	306.431640625	1638.662963867188	-293.4439392089844	490.2607727050781	877.3084106445312	-138.5570220947266	372.353759765625	831.1148681640625	-516.9896850585938	291.8246154785156	865.5091552734375	-424.8427124023438	369.7227478027344	892.1619262695312	-186.111572265625	489.8543701171875	466.5321044921875	-65.46492004394531	450.5655822753906	619.4439086914062	-70.33275604248047	853.595947265625	253.7378234863281	-170.9622955322266	621.9435424804688	375.0589294433594	-83.92407989501953	669.0109252929688	102.3271636962891	-141.0415649414062	704.0230102539062	149.9670104980469	-198.2360687255859	760.2384033203125	155.0771789550781	-102.6543121337891	852.5029907226562	277.367431640625	-245.0216674804688	393.0681457519531	447.03466796875	-422.4801940917969	345.4815368652344	696.6104736328125	-488.9358215332031	513.3822021484375	41.08681869506836	-392.4903564453125	413.1241149902344	301.2390747070312	-408.4651184082031	362.3785095214844	52.22827529907227	-232.7284088134766	438.5994567871094	56.07553482055664	-240.6481628417969	383.8628540039062	39.57008361816406	-330.66943359375	596.8645629882812	36.66937637329102	-390.0955810546875	
361	3.6	512.2606201171875	973.351318359375	-437.7535705566406	559.6615600585938	982.6426391601562	-302.6648864746094	485.5654907226562	1067.48779296875	-388.0350341796875	192.0291290283203	1212.872802734375	-277.9715576171875	462.0427856445312	1185.474975585938	-403.3686218261719	346.0643920898438	1437.197998046875	-403.8081665039062	204.9453430175781	1329.8232421875	-298.0638122558594	376.0771179199219	1312.543334960938	-504.8369140625	430.1932983398438	1405.763916015625	-327.8250427246094	371.8426513671875	1421.33935546875	-215.8208465576172	434.3263549804688	1323.812622070312	-116.7830963134766	415.3288269042969	1124.79248046875	-48.28145980834961	488.2481994628906	1081.915649414062	-112.3294525146484	243.408203125	1024.942138671875	-144.8576965332031	255.0556945800781	983.0797119140625	-84.17025756835938	345.796142578125	1066.0673828125	-56.88692092895508	135.5534820556641	907.8880615234375	-152.4982147216797	200.4150085449219	932.0745849609375	-93.85576629638672	175.0103454589844	971.7435913085938	-149.0926971435547	219.4240264892578	1381.787719726562	-509.0433959960938	209.2031402587891	1316.5947265625	-582.0830078125	190.64404296875	1026.990112304688	-614.8973388671875	251.8256072998047	1003.761291503906	-600.6661987304688	101.2304077148438	859.4176025390625	-480.139892578125	123.4699096679688	821.3731079101562	-557.0679321289062	175.1859893798828	968.6843872070312	-608.4342651367188	64.56184387207031	710.7320556640625	-450.4088439941406	65.62955474853516	770.452880859375	-459.7336120605469	96.72019195556641	743.4735717773438	-526.9114990234375	192.4212646484375	1614.364501953125	-429.4227600097656	171.7032623291016	1626.8017578125	-224.1112823486328	96.41036224365234	1613.827758789062	-330.292724609375	306.2135925292969	1638.943969726562	-295.0634155273438	489.7832336425781	878.0968017578125	-135.8539276123047	375.4028015136719	831.1646118164062	-515.384765625	294.621826171875	866.1874389648438	-424.6813049316406	369.5895080566406	892.9077758789062	-184.8988189697266	487.8965454101562	467.4325256347656	-61.08373641967773	449.5711059570312	620.560302734375	-66.89188385009766	851.7876586914062	251.0924530029297	-160.7903594970703	619.4750366210938	374.9405517578125	-77.54592132568359	664.7799072265625	101.7171173095703	-138.9127502441406	701.1661987304688	150.8035430908203	-193.6793212890625	755.8765869140625	151.3737182617188	-97.38445281982422	852.3182373046875	276.7441711425781	-234.165771484375	395.2501220703125	447.7265319824219	-422.5125122070312	348.3297119140625	697.3867797851562	-488.3124389648438	513.3145141601562	40.71897125244141	-392.8615112304688	414.4134521484375	301.8684692382812	-408.7054138183594	361.9703063964844	52.61238479614258	-233.2843475341797	438.3518676757812	56.72034072875977	-241.1499633789062	383.7213745117188	39.42659378051758	-330.9707336425781	596.7740478515625	36.06659698486328	-390.381591796875	
